# xmcd
#
# Track frame offsets:
#	182
#	13322
#	33015
#	43647
#	59952
#	70832
#	81322
#	108415
#	124210
#	140332
#	162520
#	175362
#	183877
#	206065
#
# Disc length: 3105 seconds
#
# Revision: 0
# Processed by: cddbd v1.4PL0 Copyright (c) Steve Scherf et al.
# Submitted via: EasyCDDAExtractor 4.5.2.1
#
DISCID=ce0c1f0e
DTITLE=Canned Heat - The ties that bind
DYEAR=1997
DGENRE=Blues
TTITLE0=Saturday Night Fish Fry
TTITLE1=50,000 Boogies
TTITLE2=I Hear You Knocking
TTITLE3=Drunk
TTITLE4=One Thing
TTITLE5=Harry's Open Pit and Bar B Que
TTITLE6=I Idolize You
TTITLE7=the Beggar
TTITLE8=Choking To death
TTITLE9=Sad Ol' Mountain Sorrow
TTITLE10=Boogie and Blues
TTITLE11=Reefer Blues
TTITLE12=You Tease Me
TTITLE13=Something's Gotta Go
EXTD=
EXTT0=
EXTT1=
EXTT2=
EXTT3=
EXTT4=
EXTT5=
EXTT6=
EXTT7=
EXTT8=
EXTT9=
EXTT10=
EXTT11=
EXTT12=
EXTT13=
PLAYORDER=
